<svg xmlns="http://www.w3.org/2000/svg" viewBox="0 0 460 128" role="img" aria-label="Marvel's Online Clothings">
  <title>Marvel's Online Clothings</title>
  <g>
    <path d="M64 28 C60 21 52 19 52 12.5 C52 7.5 58 6.5 64 12.5 C70 6.5 76 7.5 76 12.5 C76 19 68 21 64 28 Z" fill="#B98A3C"/>
    <path d="M64 27 C64 34 61 39 64 45" fill="none" stroke="#B98A3C" stroke-width="3.4" stroke-linecap="round"/>
    <path d="M64 45 L35 59.5 Q64 66.5 93 59.5 L64 45" fill="none" stroke="#B98A3C" stroke-width="3.4" stroke-linejoin="round" stroke-linecap="round"/>
    <path d="M34 104 L34 68 Q49 90 64 100 Q79 90 94 68 L94 104" fill="none" stroke="#6D1533" stroke-width="12" stroke-linecap="round" stroke-linejoin="round"/>
    <circle cx="64" cy="66.5" r="3.6" fill="#B98A3C"/>
    <path d="M64 70 C60 78 59 88 64 96 C69 88 68 78 64 70 Z" fill="#B98A3C"/>
  </g>
  <g fill="#6D1533">
    <text x="150" y="66" font-family="'Playfair Display', 'Cormorant Garamond', Georgia, serif" font-size="44" font-weight="600" letter-spacing="6">MARVEL'S</text>
  </g>
  <g>
    <line x1="150" y1="84" x2="330" y2="84" stroke="#B98A3C" stroke-width="1.4"/>
    <path d="M240 80.5 c-1.6 -2.6 -5 -2 -5 1 c0 2.4 3 3.6 5 5.2 c2 -1.6 5 -2.8 5 -5.2 c0 -3 -3.4 -3.6 -5 -1 z" fill="#B98A3C"/>
    <text x="150" y="104" font-family="'Jost', ui-sans-serif, system-ui, sans-serif" font-size="15" font-weight="400" letter-spacing="9" fill="#2B1A22">ONLINE CLOTHINGS</text>
  </g>
</svg>
